<svg version="1.2" xmlns="http://www.w3.org/2000/svg" viewBox="0 0 150 150" width="150" height="150">
	<title>simetry-logo-icon-svg</title>
	<style>
		.s0 { fill: #ffffff } 
		.s1 { fill: #232426 } 
	</style>
	<path id="Camada 1" class="s0" d="m0 23c0-12.7 10.3-23 23-23h104c12.7 0 23 10.3 23 23v104c0 12.7-10.3 23-23 23h-104c-12.7 0-23-10.3-23-23z" />
	<path id="&lt;Compound Path&gt;" fill-rule="evenodd" class="s1" d="m139 94.5c0 0.8-0.7 1.4-1.4 1.4c-0.3 0-0.7-0.2-1-0.5c-2.3-2.7-5-4.9-8.9-6q-3-0.8-6.3-0.8q-2 0.1-4.1 0.4c-5.1 0.6-10.1 2.2-14.6 3.2c-2.6 0.6-5.5 1.2-8.6 1.6c-0.2 3-0.9 6-1.4 8.5c-0.9 4.5-2.4 9.6-2.9 14.8c-0.4 3.4-0.3 7 0.6 10.4c1.2 3.9 3.4 6.5 6.2 8.7c1 0.9 0.4 2.4-0.9 2.4c-2.3 0-4.5-0.2-6.8-0.7c-3.7-0.8-7.3-2.2-10-5.1c-1.4-1.4-2.3-3-2.9-4.7c-0.6 1.7-1.4 3.4-2.8 4.8c-2.6 2.9-6.2 4.4-9.8 5.3c-2.3 0.5-4.7 0.7-6.9 0.8h-0.1c-1.1 0-1.7-1.5-0.8-2.4c2.7-2.3 4.9-5 6-8.9c0.9-3.3 0.9-6.8 0.4-10.4c-0.6-5.1-2.2-10.1-3.2-14.6c-0.6-2.6-1.2-5.5-1.6-8.6c-3-0.2-6-0.9-8.5-1.4c-4.5-0.9-9.6-2.4-14.8-2.9q-2-0.2-4-0.2c-2.2 0-4.4 0.2-6.4 0.8c-3.9 1.1-6.5 3.4-8.7 6.2q-0.5 0.5-1 0.5c-0.8 0-1.5-0.5-1.4-1.4c0-2.3 0.2-4.5 0.7-6.8c0.8-3.7 2.2-7.3 5.1-10c1.4-1.4 3-2.3 4.8-2.9c-1.8-0.6-3.4-1.4-4.9-2.8c-2.9-2.6-4.4-6.2-5.3-9.8c-0.5-2.3-0.7-4.7-0.8-6.9c0-0.8 0.7-1.4 1.4-1.4c0.3 0 0.7 0.2 1 0.5c2.3 2.7 5 4.9 8.9 6q3 0.8 6.3 0.8q2-0.1 4.1-0.4c5.1-0.6 10.1-2.2 14.6-3.2c2.6-0.6 5.5-1.2 8.6-1.6c0.2-3 0.9-6 1.4-8.5c0.9-4.5 2.4-9.6 3-14.8c0.3-3.4 0.2-7-0.7-10.4c-1.1-3.9-3.4-6.5-6.2-8.7c-1-0.9-0.4-2.4 0.9-2.4c2.3 0 4.5 0.2 6.8 0.7c3.7 0.8 7.3 2.2 10 5.1c1.4 1.4 2.3 3 2.9 4.8c0.6-1.8 1.4-3.4 2.8-4.9c2.6-2.9 6.2-4.4 9.8-5.3c2.3-0.5 4.7-0.7 6.9-0.8c1.2 0 1.9 1.5 0.9 2.4c-2.7 2.3-4.9 5-6 8.9c-0.9 3.3-0.9 6.9-0.4 10.4c0.6 5.1 2.2 10.1 3.2 14.6c0.6 2.6 1.2 5.5 1.6 8.6c3 0.2 6 0.9 8.5 1.4c4.5 0.9 9.6 2.4 14.8 3q2 0.1 4 0.1c2.2 0 4.4-0.2 6.4-0.8c3.9-1.1 6.5-3.4 8.7-6.2q0.5-0.5 1-0.5c0.8 0 1.5 0.5 1.4 1.4c0 2.3-0.2 4.5-0.7 6.8c-0.8 3.7-2.2 7.3-5.1 10c-1.4 1.4-3 2.3-4.8 2.9c1.8 0.6 3.5 1.4 4.9 2.8c2.9 2.6 4.4 6.2 5.3 9.8c0.5 2.3 0.7 4.7 0.8 6.9zm-48.3-3.6q0.2 0 0.5 0c0-3-0.5-6-2.1-8.4c-1.8-0.1-3.5-0.3-5.2-0.7q-1.7-0.5-3.2-1.2q0.7 1.4 1.2 3.2q0.7 2.5 0.9 5.2c2 1.3 4.6 2 7.9 1.9zm-30.3-11.1q0.1-0.2 0.2-0.2c1.6-1.8 3.6-3.1 5.8-4q-3.3-1.3-5.9-3.8q-0.1-0.2-0.2-0.3h-0.3q-2 0-4.1 0.3c-2.6 0.3-5 0.9-7.6 1.5c-2.4 0.6-4.8 1.2-7.1 1.7q-1.9 0.4-3.9 0.8q2 0.5 3.9 0.9c2.3 0.4 4.8 1 7.2 1.6c2.5 0.5 5 1 7.5 1.3q2.2 0.2 4.2 0.2zm-0.1-19.7q-0.2 0-0.6 0c0 3 0.5 6 2.1 8.4c1.8 0.1 3.6 0.3 5.2 0.7q1.8 0.5 3.2 1.2q-0.8-1.4-1.2-3.2q-0.7-2.5-0.9-5.2c-2-1.3-4.6-1.9-7.8-1.9zm20.2 10.2q1.5-0.7 3.2-1.2c1.7-0.5 3.4-0.8 5.2-0.9c1.5-2.4 2-5.3 1.9-8.4q-0.3 0-0.6 0c-3.2 0-5.8 0.7-7.7 2.1q-0.2 2.8-0.9 5.2q-0.4 1.8-1.1 3.2zm-20.4 20.9q0.2 0 0.5 0c3.3 0 5.8-0.7 7.7-2.1q0.2-2.8 0.9-5.2q0.4-1.7 1.1-3.2q-1.4 0.7-3.1 1.2c-1.7 0.5-3.4 0.8-5.3 0.9c-1.5 2.4-1.9 5.3-1.8 8.4zm30.9-11.7q2 0 4-0.3c2.6-0.3 5.1-0.9 7.6-1.5c2.4-0.6 4.9-1.2 7.1-1.7q1.8-0.4 3.9-0.8q-2.1-0.5-3.9-0.9c-2.3-0.4-4.7-1-7.2-1.6c-2.5-0.5-5-1-7.6-1.3q-2-0.2-4-0.1h-0.5q0 0.1-0.1 0.1c-1.6 1.8-3.6 3.1-5.7 4c2.1 0.9 4.2 2.1 5.8 3.9q0 0.1 0.1 0.2zm3.1-19.5c0 2.9-0.4 5.7-1.5 8.1q1.3 0.1 2.7 0.3c3 0.2 5.8 0.8 8 1.3q1.4 0.4 2.9 0.7c1.5 0.3 2.9 0.6 4.2 0.9l0.5 0.1c3.4 0.7 7.3 1.5 11 1.5q5.6 0 8.8-3.1c2.1-1.9 3.4-4.6 4.2-8.3q0.2-0.7 0.2-1.5c-1.7 1.4-3.9 2.8-6.7 3.6c-2.2 0.6-4.6 0.9-7.2 1c-1.4 0-2.9-0.1-4.4-0.3c-3.8-0.4-7.4-1.2-10.9-2q-2.2-0.5-4.1-0.9l-0.6-0.1c-2.2-0.5-4.7-1-7.1-1.3zm-15.2-20l0.1 0.5q0.5 2.1 1 4.2q0.4 1.5 0.8 2.9c0.5 2.2 1.2 5 1.5 7.9q0.2 1.5 0.3 2.8c2.3-1.2 5-1.6 7.7-1.6h0.4c-0.3-2.5-0.9-5-1.4-7.2l-0.1-0.5q-0.5-1.9-1-4.1c-0.9-3.5-1.8-7.1-2.3-10.8c-0.5-4.4-0.4-8.2 0.6-11.7c0.7-2.8 2-5.1 3.4-6.8q-0.8 0.1-1.6 0.3c-3.6 0.8-6.2 2.2-8.2 4.3c-4.5 5-2.7 13.2-1.2 19.8zm-2.9 1.2c-0.3-1.2-0.5-2.5-0.8-3.9c-0.3 1.4-0.6 2.7-0.8 3.9c-0.5 2.3-1.1 4.8-1.7 7.2c-0.5 2.5-1 5-1.2 7.6q-0.3 2.2-0.3 4.4q0.2 0.1 0.3 0.2c1.8 1.6 3 3.6 4 5.8q1.2-3.3 3.8-5.9q0.1-0.1 0.2-0.2q0-2.2-0.2-4.4c-0.4-2.5-1-5-1.6-7.5c-0.6-2.5-1.1-4.9-1.7-7.2zm-16 15.8h0.4c2.7 0 5.4 0.3 7.8 1.5q0.1-1.4 0.1-2.8c0.4-3 1-5.8 1.4-8q0.3-1.4 0.7-2.8c0.3-1.6 0.7-2.9 0.9-4.3l0.2-0.6c1.3-6.6 3-14.8-1.6-19.7c-2-2-4.7-3.4-8.3-4.2q-0.8-0.1-1.6-0.2c1.5 1.7 2.8 3.9 3.6 6.8c0.9 3.4 1.2 7.2 0.8 11.6c-0.5 3.7-1.3 7.3-2.1 10.8q-0.5 2.2-0.9 4.2l-0.1 0.5c-0.5 2.2-1 4.7-1.3 7.2zm-30.8 16.8c3.7-0.1 7.5-0.9 10.8-1.7l0.6-0.1c1.3-0.3 2.7-0.6 4.1-1q1.5-0.4 3-0.7c2.1-0.6 5-1.2 7.9-1.6q1.4-0.1 2.8-0.2c-1.3-2.5-1.7-5.3-1.7-8.2c-2.5 0.4-4.9 1-7.2 1.5l-0.5 0.1q-1.9 0.4-4.1 1c-3.5 0.8-7 1.8-10.8 2.3c-1.6 0.1-3 0.2-4.5 0.2c-2.6 0.1-4.9-0.2-7.1-0.8c-2.9-0.8-5.1-2.1-6.9-3.5q0.2 0.9 0.3 1.6c0.8 3.7 2.2 6.3 4.4 8.2c2.1 2 5 2.9 8.9 2.9zm27.8 17.2c-0.1-2.8 0.3-5.6 1.4-8.1q-1.2 0-2.8-0.2c-2.8-0.3-5.6-0.9-7.8-1.4q-1.5-0.3-3-0.6q-2.1-0.5-4.1-1l-0.6-0.1c-3.4-0.7-7.2-1.5-10.9-1.5c-3.9 0.1-6.7 1-8.9 3.1c-2 1.9-3.4 4.6-4.1 8.3q-0.2 0.7-0.4 1.6c1.8-1.5 4-2.8 6.9-3.7c2.2-0.6 4.6-0.9 7.1-1c1.5 0 2.9 0.1 4.5 0.3c3.7 0.4 7.4 1.2 10.8 2q2.2 0.5 4.2 0.9l0.5 0.1c2.3 0.5 4.7 1 7.2 1.3zm15.2 20.1l-0.2-0.6q-0.4-2.1-1-4.2q-0.4-1.4-0.7-2.9c-0.5-2.2-1.2-5-1.5-7.9q-0.2-1.5-0.3-2.8c-2.4 1.2-5.1 1.6-7.8 1.6h-0.3c0.3 2.5 0.9 5 1.3 7.2l0.2 0.5q0.4 1.9 1 4.1c0.9 3.5 1.8 7.1 2.2 10.8c0.6 4.5 0.4 8.3-0.5 11.7c-0.7 2.9-2 5.1-3.5 6.8q0.9-0.1 1.7-0.3c3.5-0.8 6.2-2.2 8.2-4.3c4.5-5 2.6-13.2 1.2-19.7zm2.8-1.3q0.5 1.9 0.9 3.9q0.4-2 0.8-3.9c0.4-2.3 1-4.8 1.6-7.2c0.5-2.5 1-5 1.3-7.5q0.3-2.3 0.2-4.5q-0.1-0.1-0.2-0.2c-1.8-1.6-3-3.6-4-5.8c-0.8 2.2-2.1 4.2-3.9 5.9q-0.1 0.1-0.1 0.2q0 2.2 0.2 4.4c0.4 2.6 0.9 5.1 1.5 7.6c0.6 2.4 1.2 4.8 1.7 7.1zm16-15.8h-0.3c-2.7 0-5.4-0.3-7.8-1.4q-0.1 1.4-0.2 2.8c-0.3 2.9-0.9 5.7-1.4 7.9q-0.3 1.5-0.6 2.9q-0.6 2.2-1 4.2l-0.1 0.6c-1.4 6.6-3 14.8 1.6 19.7c2 2 4.7 3.5 8.3 4.2q0.8 0.1 1.5 0.3c-1.4-1.8-2.7-4-3.5-6.9c-1-3.4-1.3-7.2-0.8-11.6c0.4-3.7 1.2-7.3 2-10.8q0.6-2.2 1-4.2l0.1-0.5c0.5-2.2 1-4.6 1.2-7.2zm44.5-4.1q-0.2-0.9-0.4-1.5c-0.7-3.7-2.2-6.4-4.3-8.3c-2.1-2-5.1-2.9-8.9-2.8c-3.7 0-7.5 0.8-10.9 1.6l-0.5 0.2q-2 0.4-4.2 1q-1.5 0.3-2.9 0.6c-2.1 0.6-5 1.2-7.9 1.6q-1.4 0.1-2.8 0.2c1.2 2.5 1.6 5.3 1.6 8.2c2.5-0.4 4.9-0.9 7.2-1.4l0.5-0.2q2-0.4 4.2-1c3.5-0.8 7-1.8 10.7-2.2c1.6-0.2 3.1-0.3 4.5-0.3c2.7 0 4.9 0.2 7.2 0.8c2.8 0.8 5.1 2.1 6.9 3.5z" />
</svg>