<svg version="1.2" xmlns="http://www.w3.org/2000/svg" viewBox="0 0 3200 1650" width="768" height="396">
	<title>slp-logo-icon-svg</title>
	<style>
		.s0 { fill: #0f0f0f } 
		.s1 { fill: #ffdd00 } 
		.s2 { fill: #2a82ef } 
	</style>
	<g id="Pasta 1">
		<g id="2">
			<g id="E">
				<path id="&lt;Compound Path&gt;" fill-rule="evenodd" class="s0" d="m2539.4 1292.4c-27.6 11-58.6 16.8-93.5 16.8q-49 0-90.1-15.3q-41-15.3-71.2-43.3q-30.2-28-47.2-68.6q-17.1-40.7-17.1-92.2q0-50.7 17.1-92.3q17-41.5 46.8-70.8q29.7-29.3 70.3-45.4q40.7-16.2 87.9-16.2q43.7 0 80.9 14.4q37.1 14.4 64.2 42.8q27.1 28.5 42.4 70.9c10.2 28.2 13.1 68.7 14.4 127.2h-319q1.7 22.7 11.8 41.5q10 18.8 26.6 32.3q16.6 13.6 37.6 21.4q21 7.9 43.7 7.9c16.9 0 31.9-2.2 45.4-6.2c1.4 33.1 20.9 61.2 49 75.1zm-214.1-247.2h215q0-20.1-5.7-38.5q-5.7-18.4-17.9-32.3q-12.2-14-31-22.3q-18.8-8.3-44.2-8.3q-47.2 0-80 28.4q-32.8 28.4-36.2 73z"/>
				<circle id="&lt;Path&gt;" class="s0" cx="2578.4" cy="1213.4" r="53.5"/>
			</g>
			<g id="G copy">
				<path id="&lt;Compound Path&gt;" fill-rule="evenodd" class="s0" d="m2095.9 905.5v382.1q0 56.8-14 102.7q-13.9 45.9-43.2 77.8q-29.3 31.9-73.9 49.4q-44.6 17.5-105.8 17.5q-25.3 0-53.7-4.4q-28.4-4.4-56-13.1c-5-1.6-9.9-3.6-14.8-5.4c27.7-14.9 46.7-43.9 46.7-77.5c0-2-0.4-3.8-0.6-5.7c25.6 10.1 51.4 15.2 77.6 15.2q37.5 0 63.3-11q25.8-11 41.1-30.3q15.3-19.3 21.9-45.6q6.5-26.3 6.5-57.9v-30.7h-1.7q-22.8 30.9-58.2 47.2q-35.4 16.4-79.1 16.4q-47.2 0-85.6-17.5q-38.5-17.5-65.2-47.2q-26.6-29.7-41.5-69.5q-14.9-39.8-14.9-84.4q0-45.4 14.5-85.7q14.4-40.2 41.1-69.9q26.6-29.7 64.6-47.2q38.1-17.5 85.3-17.5q44.6 0 83 18.4q38.5 18.3 61.2 56.8h1.8v-63zm-114.8 206.8q0-27-8.8-51.4q-8.7-24.4-24.9-42.7q-16.2-18.3-38.9-28.8q-22.7-10.4-51.6-10.4q-28.8 0-51.1 10.4q-22.3 10.5-37.6 28.4q-15.3 17.8-23.6 42.2q-8.3 24.4-8.3 52.3q0 25.3 8.3 48.8q8.3 23.5 23.6 42.3q15.3 18.7 37.6 30q22.3 11.3 50.3 11.3q28.8 0 52-10.8q23.1-10.9 39.3-29.2q16.2-18.3 24.9-42.3q8.8-24 8.8-50.1z"/>
				<circle id="&lt;Path&gt;" class="s0" cx="1692.8" cy="1434.6" r="53.5"/>
			</g>
			<g id="A copy">
				<path id="&lt;Compound Path&gt;" fill-rule="evenodd" class="s0" d="m1516.4 1067.4v255.3h-97.9v-53.3h-2.6q-15.7 28-50.7 45.9q-35 17.9-79.6 17.9q-25.3 0-52.9-6.6q-27.5-6.5-50.7-21.8q-23.1-15.3-38.4-40.2q-15.3-24.9-15.3-61.7q0-47.2 26.6-75.1q26.7-28 68.7-42.9q41.9-14.8 93.1-19.6q51.1-4.8 100.1-4.8v-10.5q0-39.4-28.4-58.2q-28.5-18.8-67.8-18.8c-10.8 0-21.5 1.2-31.9 3.4c0.1-1.7 0.5-3.4 0.5-5.2c0-28.6-13.8-53.7-34.8-69.9c24.7-6.9 49.7-10.5 74.9-10.5q56 0.1 92.3 15.8q36.3 15.7 57.2 41.1q21 25.3 29.3 56.8q8.3 31.5 8.3 62.9zm-99.6 63.9h-23.6q-25.4 0-53.4 2.2q-27.9 2.1-51.5 9.6q-23.6 7.4-39.4 20.9q-15.7 13.6-15.7 37.2q0 14.9 6.5 24.9q6.6 10.1 17.1 16.2q10.5 6.1 23.6 8.7q13.1 2.7 26.2 2.7q54.2 0 82.2-28.9q28-28.8 28-78.7z"/>
				<circle id="&lt;Path&gt;" class="s0" cx="1200.8" cy="971.2" r="53.5"/>
			</g>
			<g id="P">
				<path id="&lt;Compound Path&gt;" fill-rule="evenodd" class="s0" d="m1010.6 1109.6q0 46.3-14.4 87q-14.5 40.6-41.1 70.8q-26.7 30.1-64.7 48.1q-38 17.9-86.1 17.9q-44.6 0-81.8-18.4q-37.1-18.3-57.2-49.8h-1.8v143.6c-14.6-10.7-32.5-17.3-52.1-17.3c-19.8 0-38 6.8-52.8 17.9v-507.9h100.6v58.6h2.6q7.8-12.2 20.5-24.9q12.7-12.7 31.1-22.8q18.3-10 41.5-16.6q23.1-6.5 52-6.5q44.6 0 82.2 17q37.6 17.1 64.7 46.8q27.1 29.7 41.9 69.9q14.9 40.3 14.9 86.6zm-87.8 0q0-24.5-7.5-48.5q-7.4-24.1-22.2-43.3q-14.9-19.2-37.6-31q-22.8-11.8-53.4-11.8q-28.8 0-51.5 12.2q-22.8 12.2-39 31.5q-16.1 19.2-24.4 43.7q-8.3 24.5-8.3 48.9q0 24.5 8.3 48.5q8.3 24.1 24.4 43.3q16.2 19.3 39 31.1q22.7 11.8 51.5 11.8q30.6 0 53.4-12.3q22.7-12.2 37.6-31.5q14.8-19.2 22.2-43.7q7.5-24.4 7.5-48.9z"/>
				<circle id="&lt;Path&gt;" class="s1" cx="611.4" cy="1480" r="53.5"/>
			</g>
		</g>
		<g id="1">
			<g id="G">
				<path id="&lt;Compound Path&gt;" fill-rule="evenodd" class="s0" d="m3153 364v382q0 56.9-14 102.8q-14 45.9-43.3 77.8q-29.2 31.9-73.8 49.4q-44.6 17.4-105.8 17.5q-25.4-0.1-53.8-4.4q-28.4-4.4-55.9-13.1c-5.1-1.6-9.9-3.6-14.8-5.4c27.7-15 46.7-43.9 46.7-77.6c0-1.9-0.5-3.7-0.6-5.7c25.6 10.1 51.4 15.2 77.5 15.2q37.6 0 63.4-10.9q25.8-11 41.1-30.3q15.3-19.3 21.8-45.6q6.6-26.4 6.6-57.9v-30.8h-1.8q-22.7 31-58.1 47.3q-35.4 16.3-79.1 16.3q-47.2 0-85.7-17.5q-38.4-17.4-65.1-47.2q-26.7-29.7-41.5-69.5q-14.9-39.7-14.9-84.3q0-45.5 14.4-85.7q14.5-40.2 41.1-69.9q26.7-29.7 64.7-47.2q38-17.5 85.2-17.5q44.6 0 83.1 18.3q38.5 18.4 61.2 56.9h1.7v-63zm-114.8 206.8q0-27-8.7-51.5q-8.8-24.3-24.9-42.6q-16.2-18.3-38.9-28.8q-22.8-10.4-51.6-10.4q-28.9 0-51.1 10.4q-22.3 10.5-37.6 28.3q-15.3 17.9-23.6 42.3q-8.4 24.4-8.3 52.3q-0.1 25.2 8.3 48.8q8.3 23.5 23.6 42.2q15.3 18.8 37.6 30.1q22.2 11.3 50.2 11.3q28.9 0 52-10.9q23.2-10.9 39.4-29.2q16.1-18.3 24.9-42.2q8.7-24 8.7-50.1z"/>
				<circle id="&lt;Path&gt;" class="s0" cx="2749.8" cy="893" r="53.5"/>
			</g>
			<g id="N copy">
				<path id="&lt;Path&gt;" class="s0" d="m2458.6 555.5q0-18.3-2.6-38.4q-2.6-20.1-11.4-36.3q-8.7-16.2-24-26.7q-15.3-10.5-40.7-10.5q-25.3 0.1-43.7 10.1q-18.3 10.1-30.1 25.8q-11.9 15.7-18 36.3q-6.1 20.5-6.1 41.5v230.8h-104.9v-419.6h99.7v67.3h1.7q14-31.5 48.5-55.5q34.6-24.1 81.8-24.1q41.1 0 70.4 14.5q29.2 14.4 48 38q18.8 23.6 27.6 54.2q8.7 30.6 8.7 62.9v139c-14.9-11.4-33.3-18.4-53.5-18.4c-19.2 0-36.9 6.3-51.4 16.7z"/>
				<circle id="&lt;Path&gt;" class="s0" cx="2510" cy="734.8" r="53.5"/>
			</g>
			<g id="I">
				<path id="&lt;Path&gt;" class="s0" d="m1953.2 366.2h104.9v419.6h-104.9z"/>
				<circle id="&lt;Path&gt;" class="s0" cx="2004.6" cy="223.8" r="64.6"/>
			</g>
			<g id="D">
				<path id="&lt;Compound Path&gt;" fill-rule="evenodd" class="s0" d="m1742.1 257c19.9 0 38.1-6.9 52.9-18v538.4h-99.6v-63h-1.8q-21.8 36.8-60.7 56q-38.9 19.2-83.5 19.2q-48.1 0-86.1-17.9q-38.1-17.9-64.7-48.1q-26.7-30.1-41.1-70.8q-14.4-40.6-14.4-87q0-46.3 14.8-86.5q14.9-40.2 42-70q27.1-29.7 64.7-46.7q37.6-17.1 82.2-17.1q28.8 0 51.5 6.6q22.8 6.5 39.8 16.1q17.1 9.7 29.3 21q12.2 11.4 20.1 21.9h2.6v-171.3c14.6 10.7 32.5 17.2 52 17.2zm-69.7 310.6q0-24.5-8.3-49q-8.4-24.5-24.5-43.7q-16.2-19.2-38.9-31.5q-22.8-12.2-51.6-12.2q-30.6 0-53.3 11.8q-22.8 11.8-37.6 31q-14.9 19.3-22.3 43.3q-7.4 24-7.4 48.5q0 24.5 7.4 49q7.4 24.5 22.3 43.7q14.8 19.2 37.6 31.5q22.7 12.2 53.3 12.2q28.8 0 51.6-11.8q22.7-11.8 38.9-31q16.1-19.3 24.5-43.3q8.3-24 8.3-48.5z"/>
				<circle id="&lt;Path&gt;" class="s0" cx="1742.1" cy="168.5" r="53.5"/>
			</g>
			<g id="N">
				<path id="&lt;Path&gt;" class="s0" d="m1093.8 555.7q0-18.3-2.6-38.4q-2.7-20.1-11.4-36.3q-8.7-16.2-24-26.7q-15.3-10.5-40.7-10.5q-25.3 0-43.7 10.1q-18.3 10-30.2 25.8q-11.8 15.7-17.9 36.3q-6.1 20.5-6.1 41.5v230.8h-104.9v-419.7h99.7v67.4h1.7q14-31.5 48.5-55.6q34.6-24 81.8-24q41 0 70.3 14.4q29.3 14.5 48.1 38.1q18.8 23.6 27.6 54.2q8.7 30.6 8.7 62.9v139c-14.9-11.4-33.3-18.5-53.5-18.5c-19.2 0-36.9 6.3-51.4 16.7z"/>
				<circle id="&lt;Path&gt;" class="s0" cx="1145.2" cy="735" r="53.5"/>
			</g>
			<g id="A">
				<path id="&lt;Compound Path&gt;" fill-rule="evenodd" class="s0" d="m669.6 521.6v255.3h-97.9v-53.3h-2.6q-15.8 28-50.7 45.9q-35 17.9-79.6 17.9q-25.3 0-52.9-6.6q-27.5-6.5-50.7-21.8q-23.1-15.3-38.4-40.2q-15.3-25-15.3-61.7q0-47.2 26.6-75.2q26.7-27.9 68.7-42.8q41.9-14.8 93.1-19.7q51.1-4.8 100.1-4.8v-10.5q0-39.3-28.5-58.1q-28.4-18.8-67.7-18.8c-10.9 0-21.5 1.2-31.9 3.4c0.1-1.8 0.5-3.4 0.5-5.2c0-28.6-13.8-53.7-34.8-69.9c24.7-6.9 49.7-10.5 74.9-10.5q56 0 92.3 15.8q36.2 15.7 57.2 41.1q21 25.3 29.3 56.8q8.3 31.5 8.3 62.9zm-99.6 63.8h-23.6q-25.4 0-53.4 2.2q-28 2.2-51.6 9.6q-23.6 7.5-39.3 21q-15.7 13.6-15.7 37.2q0 14.9 6.5 24.9q6.6 10.1 17.1 16.2q10.5 6.1 23.6 8.7q13.1 2.6 26.2 2.6q54.2 0 82.2-28.8q28-28.9 28-78.7z"/>
				<circle id="&lt;Path&gt;" class="s0" cx="354" cy="425.4" r="53.5"/>
			</g>
			<g id="L">
				<path id="&lt;Path&gt;" class="s0" d="m101.5 267c20 0 38.2-6.9 53-18v538.4h-104.9v-537.6c14.6 10.7 32.5 17.2 51.9 17.2z"/>
				<circle id="&lt;Path&gt;" class="s2" cx="101.5" cy="178.5" r="53.5"/>
			</g>
		</g>
	</g>
</svg>