<svg version="1.2" xmlns="http://www.w3.org/2000/svg" viewBox="0 0 512 512" width="512" height="512">
	<title>basket</title>
	<style>
		.s0 { fill: #2a82ef } 
	</style>
	<path id="Path 0" fill-rule="evenodd" class="s0" d="m148 13c4.7 0 8.8 0.8 15 3 4.7 1.7 10.3 4.1 12.5 5.4 2.2 1.3 5.7 4.3 7.8 6.7 2.1 2.4 4.7 6.9 5.8 9.9 1.7 4.4 2 7 1.6 13-0.4 6.2-2.3 12.7-11 37.5-5.8 16.5-15.3 43.2-21.1 59.3-5.8 16-10.6 29.4-10.6 29.7 0 0.3 48.6 0.5 108 0.5 59.4 0 108-0.2 108-0.5 0-0.3-4.8-13.7-10.6-29.7-5.9-16.1-15.4-42.8-21.1-59.3-8.7-24.7-10.6-31.3-11-37.5-0.4-6-0.1-8.6 1.6-13 1.1-3 3.7-7.5 5.8-9.9 2.1-2.4 5.6-5.4 7.8-6.7 2.2-1.3 7.8-3.7 12.5-5.4 6.2-2.2 10.2-3 15-3 5 0.1 7.8 0.7 12.5 2.9 3.6 1.7 7.8 4.9 10.5 7.8 4 4.4 5.6 7.8 14.9 31.8 5.7 14.9 14.8 38.9 20.1 53.5 5.4 14.6 13 35.9 17.1 47.5 4 11.6 7.7 21.6 8.3 22.3 0.8 0.9 4.5 1.3 13.3 1.2 9.1 0 13.8 0.5 18 1.8 3.2 1 7.8 3 10.3 4.4 2.5 1.4 6.8 5 9.6 7.9 2.8 3 6.1 7.4 7.4 9.9 1.2 2.5 3.1 7.9 4.1 12 1.2 4.7 1.9 11.1 1.9 17.2 0 5.4-0.7 13-1.5 16.8-0.8 3.8-2.7 9.6-4.3 12.7-1.5 3.2-5.2 8.3-8.2 11.4-3 3.1-7.9 6.8-10.8 8.3-5.2 2.6-5.2 2.6-5.2 7.3 0 2.7-0.7 14-1.5 25.3-0.8 11.3-2.2 27.5-3.1 36-0.8 8.5-2.6 24.5-4 35.5-1.3 11-3.6 26.9-4.9 35.3-1.5 8.9-3.8 18.6-5.5 23.4-1.7 4.6-4.9 11.2-7.2 14.8-2.2 3.6-5.9 8.7-8.2 11.3-2.2 2.7-7.2 7.3-11.1 10.2-3.9 2.9-10.1 6.9-14 8.9-3.9 1.9-11.3 4.6-26 8.6h-281l-9.3-2.5c-5-1.4-12.5-4.1-16.5-6.1-3.9-2-10.4-6-14.2-8.9-3.8-2.9-9.2-7.9-11.9-11.1-2.6-3.3-6.5-8.8-8.7-12.4-2.1-3.6-5.1-10.6-6.7-15.5-1.7-5-4.2-16.6-5.6-26-1.4-9.4-3.7-26.4-5.1-38-1.3-11.6-3.3-31.4-4.4-44-1.1-12.6-2.4-29-3.6-49.7l-5.9-3.1c-3.3-1.8-8.1-5.6-10.8-8.7-2.8-3-6-7.7-7.3-10.5-1.3-2.7-3-8-3.9-11.7-0.9-3.8-1.6-11.1-1.6-16.3 0-5.2 0.7-12.8 1.5-16.7 0.8-4 2.8-10 4.5-13.3 1.6-3.3 4.8-8 7.2-10.4 2.4-2.5 6.3-5.8 8.8-7.3 2.5-1.6 7.4-3.8 11-4.9 5-1.5 9.2-1.9 18.5-1.9 8.7 0.1 12.3-0.3 13.1-1.2 0.6-0.7 3-6.9 5.3-13.8 2.4-6.9 8.4-23.7 13.3-37.5 5-13.7 10-27.2 11.2-29.8 1.4-3.3 2.9-5.1 4.8-5.7 2-0.7 3.6-0.6 5.5 0.4 1.6 0.7 3.1 2.1 3.5 3 0.5 0.9 0.8 2.4 0.8 3.4 0 0.9-4.3 13.4-9.5 27.7-5.2 14.3-13.9 38.8-19.3 54.5-5.5 15.7-10.2 29.9-10.6 31.5-0.4 1.7-0.2 5 0.4 7.5 0.8 2.9 2.5 5.8 4.9 8 2.5 2.5 6.1 4.4 12.1 6.3 6.8 2.3 9.4 2.7 13 2.2 3.2-0.6 5.6-1.8 8.3-4.4 3.2-3 5-6.7 11.3-23.1 4.1-10.7 10.5-27.4 14.1-37 3.6-9.6 10.3-28.1 15-41 4.6-12.9 12.7-35.8 17.9-50.7 6.2-18 9.4-28.7 9.4-31.5 0-2.6-0.9-5.9-2.3-8.3-1.7-3.1-3.7-4.8-8.7-7.3-3.6-1.8-8.8-3.7-11.5-4.4-3.8-0.9-6-0.9-9.3 0-2.3 0.7-5.6 2.4-7.2 4-2.4 2.1-4.8 7.2-10.6 22.2-4.2 10.7-8.3 20.3-9.2 21.3-1 1-3.1 1.8-5 1.7-1.8 0-4-0.8-5.2-2-1.1-1.1-2-3.2-2-4.7 0-1.6 3.5-11.8 7.8-22.7 6.6-17.1 8.3-20.7 12.2-24.9 2.7-2.9 6.9-6.1 10.5-7.8 4.7-2.2 7.4-2.9 12.5-2.9zm196.5 21.3c-2.2 1.3-5 4-6.2 6.2-1.4 2.4-2.3 5.7-2.3 8.3 0 2.8 3.2 13.5 9.4 31.5 5.2 14.9 13.3 37.8 17.9 50.7 4.7 12.9 11.4 31.4 15 41 3.6 9.6 10 26.3 14.1 37 6.3 16.4 8.1 20.1 11.3 23.1 2.7 2.6 5.1 3.8 8.3 4.4 3.6 0.5 6.2 0.1 12.5-2 4.4-1.4 9.5-3.7 11.2-5.1 1.8-1.3 3.9-3.6 4.7-5.1 0.8-1.6 1.7-4.4 2.1-6.3 0.5-2.8-0.7-7.7-6.8-25.5-4.1-12.1-11.4-33-16.2-46.5-4.8-13.5-13.8-38-20-54.5-6.2-16.5-13.6-35.8-16.3-43-2.8-7.2-6.1-14-7.4-15.2-1.3-1.2-4-2.9-6.1-3.7-2-0.9-4.9-1.6-6.5-1.5-1.5 0-5.4 0.9-8.7 2-3.3 1-7.8 2.9-10 4.2zm-211 180.2c-4.2 11-8.9 21.8-10.4 24-1.5 2.2-5 5.5-7.7 7.3-2.7 1.8-7.2 3.9-9.9 4.8-2.8 0.8-6.6 1.4-8.5 1.4-1.9 0-6.2-0.7-9.5-1.6-3.3-0.9-9.2-3-13-4.8-4.7-2.2-8.4-4.9-11.4-8.2-2.5-2.7-5.4-6.9-6.5-9.4-1.5-3.3-2-6.6-1.9-12 0-5 0.7-9.5 2.2-13.5 1.2-3.3 2.1-6.3 2.1-6.7 0-0.5-3.9-0.8-8.8-0.8-4.8 0-11 0.6-13.7 1.4-3.1 0.9-6.9 3.2-9.9 5.8-2.7 2.4-5.9 6.3-7.1 8.8-1.3 2.5-2.9 7.7-3.6 11.5-0.7 4.2-0.9 10.6-0.6 16 0.4 5.6 1.4 11.3 2.8 15 1.4 3.7 3.8 7.5 6.3 10 2.3 2.3 6.3 5.2 9.1 6.5 4.9 2.4 5.8 2.5 37.5 3.2 17.9 0.5 91.9 1 164.5 1.2 95.8 0.2 132.6 0.6 134.3 1.5 1.3 0.7 2.4 2.4 2.8 4.4 0.4 2.3 0 3.9-1.4 5.7l-1.9 2.5c-39.4 1.2-97.8 1.4-155.3 1-57.5-0.3-119.1-0.8-136.9-1.3l-32.4-0.7c1.1 17.1 2 30.3 2.9 40.5 0.8 10.2 2.6 28.6 4 41 1.3 12.4 3.8 31.5 5.5 42.5 1.7 11 4 22.7 5.1 26 1.1 3.3 3.4 8.7 5.1 12 1.9 3.5 6.5 9.4 11.2 14.1 4.4 4.4 10.5 9.5 13.5 11.2 3 1.7 9.1 4.3 13.5 5.9l8 2.8h284c11.6-3.6 17.9-6.3 21.5-8.2 3.9-2.2 9.7-6.9 14.6-11.7 6.3-6.4 8.9-9.9 12.2-16.6 2.3-4.7 4.8-11.4 5.6-15 0.8-3.6 2.6-14.4 4-24 1.4-9.6 3.5-25.1 4.6-34.5 1.1-9.4 2.8-27.4 3.9-40 1.1-12.6 2.3-28.2 2.7-34.5l0.7-11.5c-73.2 1.6-73.8 1.6-76.5-0.4-2.1-1.6-2.8-2.9-2.8-5.6 0-2.2 0.8-4.3 2-5.5 1.7-1.7 3.4-2 12.3-2.1 5.6 0 23.9-0.4 40.7-0.8 29.7-0.6 30.6-0.7 35.5-3.1 2.8-1.3 6.9-4.5 9.3-7 2.6-2.7 5.1-6.7 6.3-10 1.1-3.1 2.3-9.5 2.6-14.5 0.3-5.4 0.1-11.8-0.6-16-0.7-3.8-2.3-9-3.6-11.5-1.3-2.5-3.8-5.9-5.7-7.6-1.8-1.8-5.3-4.2-7.8-5.5-3.7-1.9-6.4-2.4-15.2-2.6-6-0.2-10.8 0-10.8 0.5 0 0.4 0.8 3.2 1.9 6.2 1 3 2.2 7.3 2.5 9.5 0.5 2.2 0.3 6.6-0.4 10-0.7 3.3-2.2 7.8-3.5 10-1.3 2.2-4.1 5.7-6.2 7.7-2.1 2-6.7 5-10.3 6.7-3.6 1.6-9.2 3.6-12.5 4.5-3.3 0.9-7.6 1.6-9.5 1.6-1.9 0-5.7-0.6-8.5-1.4-2.7-0.9-7.2-3-9.9-4.8-2.7-1.8-6.2-5.1-7.7-7.3-1.5-2.2-6.3-13.2-10.6-24.5l-7.9-20.5c-176.9-0.4-228.5-0.2-228.7 0.2-0.3 0.5-4 9.8-8.2 20.8zm27.9 101.6c2.8 0.3 7.5 1.9 10.5 3.5 2.9 1.6 6.7 4.4 8.2 6.2 1.6 1.7 3.8 5 4.9 7.2 1.1 2.2 2.4 7.7 3 12.3 0.5 4.5 1 18.8 1 31.7 0 12.9-0.5 27.3-1 32-0.7 6-1.8 9.9-3.8 13.4-1.5 2.7-4.3 6.2-6.2 7.9-1.9 1.7-6 4.2-9 5.5-4.8 2.2-6.5 2.4-14 2-6.1-0.3-9.7-1.1-12.8-2.6-2.3-1.2-5.9-3.9-8-5.9-2.1-2.1-4.8-6-6.2-8.8-2.2-4.5-2.5-7-3.4-24.5-0.6-12.4-0.6-26.4 0-38.5 0.9-17 1.2-19.5 3.4-24 1.4-2.7 4.1-6.7 6.2-8.7 2.1-2.1 5.7-4.8 8-5.9 2.4-1.2 6.5-2.5 9.2-2.8 2.7-0.4 7.2-0.4 10 0zm-14.4 17.7c-1.4 1-3.4 3.2-4.6 4.8-1.8 2.6-2.1 5.1-2.9 21.9-0.4 10.5-0.4 26.5 0.1 35.7 0.8 14.5 1.2 17 3 19.5 1.1 1.5 3.6 3.9 5.5 5.1 2.8 2 4.4 2.3 9.4 2 3.9-0.2 6.9-1 8.7-2.3 1.5-1.1 3.7-3.8 5-6 2.3-4 2.3-4.3 2.3-37.5 0-33.2 0-33.5-2.3-37.5-1.3-2.2-3.4-4.8-4.8-5.7-1.3-1-4.1-2.2-6.3-2.6-2.1-0.5-5.3-0.5-7.2-0.1-1.9 0.5-4.5 1.7-5.9 2.7zm112-18c1.9 0.2 5.5 1 8 1.7 2.7 0.8 6.7 3.4 9.8 6.2 3.3 2.9 6.4 7 10.7 15.8v75l-2.7 5.5c-1.6 3.3-4.7 7.4-8 10.3-2.9 2.6-7.3 5.4-9.8 6.3-2.5 0.8-7.4 1.4-11 1.4-3.6 0-8.5-0.6-11-1.4-2.5-0.9-6.9-3.7-9.8-6.3-3.3-2.9-6.4-7-10.7-15.8v-37.5c0-35.7 0.1-37.7 2.1-42 1.1-2.5 4-6.7 6.5-9.3 2.4-2.7 6.2-5.7 8.4-6.8 2.2-1 6.2-2.3 9-2.7 2.7-0.5 6.6-0.7 8.5-0.4zm-13 18c-1.4 1-3.5 3.8-4.8 6.3-2.2 4.3-2.2 5.1-2.2 36.9 0 31.7 0 32.6 2.2 37 1.3 2.5 3.9 5.5 5.8 6.8 2.6 1.7 5 2.3 9 2.3 4 0 6.4-0.6 9-2.3 1.9-1.3 4.5-4.3 5.8-6.8 2.2-4.4 2.2-5.3 2.2-36.7 0-27-0.3-32.9-1.6-36-0.8-2.1-2.3-4.6-3.2-5.7-0.9-1-2.8-2.4-4.2-3.1-1.4-0.7-3.9-1.4-5.5-1.7-1.6-0.3-4.6-0.2-6.5 0.3-1.9 0.4-4.6 1.6-6 2.7zm114.4-17.7c2.8 0.3 7 1.6 9.3 2.8 2.4 1.1 6 3.8 8.1 5.9 2.1 2 4.8 6 6.2 8.7 2.2 4.5 2.5 7 3.4 24 0.6 11.9 0.6 26.3 0 38.5-0.9 17.5-1.2 20-3.4 24.5-1.4 2.8-4.1 6.7-6.2 8.8-2.1 2-5.7 4.7-8.1 5.9-3 1.5-6.6 2.3-12.7 2.6-7.5 0.4-9.2 0.2-14-2-3-1.3-7.1-3.8-9-5.5-1.9-1.7-4.7-5.2-6.2-7.9-2-3.5-3.1-7.4-3.8-13.4-0.5-4.7-1-19.1-1-32 0-12.9 0.5-27.2 1-31.7 0.6-4.6 1.9-10.1 3-12.3 1.1-2.2 3.3-5.5 4.9-7.2 1.5-1.8 5.3-4.6 8.2-6.2 3-1.6 7.6-3.2 10.3-3.5 2.7-0.4 7.2-0.4 10 0zm-14.1 17.5c-1.8 1-4.3 3.7-5.5 5.9-2.3 3.9-2.3 4.5-2.3 37.5 0 33.2 0 33.5 2.3 37.5 1.3 2.2 3.5 4.9 5 6 1.8 1.3 4.8 2.1 8.7 2.3 5 0.3 6.6 0 9.4-2 1.9-1.2 4.4-3.6 5.5-5.1 1.9-2.5 2.2-5 3-21 0.6-11 0.6-25.2 0-35.9-0.8-15.2-1.2-18-2.9-20.4-1.1-1.4-3.1-3.5-4.5-4.6-1.4-1-4.1-2.2-6.1-2.6-2-0.5-4.9-0.5-6.5-0.2-1.6 0.3-4.4 1.5-6.1 2.6z"/>
</svg>