<svg version="1.2" xmlns="http://www.w3.org/2000/svg" viewBox="0 0 512 512" width="512" height="512">
	<title>certificate</title>
	<style>
		.s0 { fill: #2a82ef } 
	</style>
	<path id="Path 0" fill-rule="evenodd" class="s0" d="m186 0l2 2.8c1.2 1.5 2.1 3.7 2 5 0 1.2-1.1 3.3-4.9 7.2h-50.9c-39.3 0-51.1 0.3-52 1.3-1 0.9-1.2 43.8-1.2 193.2 0 153.6 0.2 192.3 1.2 193.3 1 1 20.5 1.2 94 1.2 51.1 0 92.7-0.3 92.5-0.8-0.1-0.4-2.2-4.5-4.5-9.2-2.3-4.7-5.1-12.1-6.3-16.5-1.6-6-2.2-11.2-2.4-33.5h-60c-37.1 0-61.1-0.3-63-1-1.7-0.5-3.6-2.1-4.3-3.5-0.6-1.4-1.2-3.1-1.2-3.8-0.1-0.6 0.8-2.4 4-6.7h129l2.9-6.3c1.6-3.4 4.1-8 8-14.2l-139.1-1-2.4-2.8c-1.3-1.5-2.4-3.6-2.4-4.7 0-1.1 1.1-3.2 4.8-7.5l155.7-1 4.5-3.2c2.5-1.7 7.9-4.7 12-6.6 4.1-2 10.2-4.3 13.5-5.2 3.3-0.8 10.4-1.9 25.5-3v-184.5h-25.7c-14.2 0-28.3-0.5-31.3-1-3-0.6-7-2.2-8.7-3.5-1.8-1.4-4.2-4.3-5.3-6.5-1.9-3.7-2-6-2-63h-27.2c-25.6 0.1-27.5 0-29.8-1.9-1.9-1.4-2.5-2.9-2.5-5.6 0-2.7 0.6-4.2 2.5-5.6 2.4-1.9 4.2-2 67.5-1.9l77 77 1 199.3 6.5 2.2c3.6 1.2 8.5 3.2 11 4.5 2.5 1.2 7.1 4 10.3 6.1 3.1 2.2 8.2 6.5 11.3 9.6 3.1 3.2 7.3 8.3 9.4 11.3 2 3 4.7 7.5 6 10 1.3 2.5 3.1 7 4.2 10 1 3 1.8 7 1.8 8.7 0 2.4-0.7 3.8-2.7 5.3-1.6 1.2-3.6 2.1-4.5 2-1 0-2.9-1-4.3-2.3-1.3-1.2-3.3-4.9-4.4-8.2-1.1-3.3-3.3-8.5-5-11.5-1.6-3-5.8-8.6-9.3-12.4-3.5-3.8-9-8.7-12.3-10.9-3.3-2.3-8.5-5.1-11.5-6.3-3-1.2-8.5-2.9-12.2-3.8-3.8-0.9-10.3-1.6-14.5-1.6-4.5 0-11.2 0.8-15.8 2-4.4 1.1-11.4 3.7-15.5 5.7-5.5 2.8-9.7 6-16.1 12.3-6.4 6.4-9.5 10.5-12.6 16.5-2.3 4.4-4.9 10.9-5.9 14.5-1.1 4.3-1.8 10.1-1.8 17 0 6.8 0.6 12.8 1.7 17 1 3.6 3.3 9.6 5.2 13.5 1.9 3.9 5.8 9.8 8.7 13.3 2.9 3.4 7.8 8.1 10.8 10.3 3 2.3 7.8 5.3 10.5 6.7 2.8 1.3 7.5 3.4 10.5 4.4 3.7 1.4 9.2 2.2 17 2.5 8.6 0.4 13.2 0.1 18.5-1.1 3.9-0.9 10.8-3.5 15.5-5.8 6.9-3.3 10.2-5.8 17-12.7 5.6-5.6 9.8-10.9 12-15.1 1.9-3.6 4.5-9.9 5.9-14 1.9-5.3 3.3-7.9 5.1-8.9 1.5-0.8 3.6-1.1 5.3-0.7 1.5 0.3 3.5 1.8 4.5 3.3 1.6 2.5 1.6 2.9 0 9.2-1 3.6-3.8 10.7-10.7 24.6l18.9 33c13.8 24 19 33.9 19 36.2 0 2.1-0.9 4.4-2.5 6.3-2.3 2.8-3 3-8.7 3-3.5-0.1-11.2-0.7-17.3-1.4-6.1-0.8-11.3-1.1-11.6-0.7-0.4 0.3-3.2 6.5-6.4 13.6-3.1 7.1-6.9 14.2-8.3 15.8-2 2-3.6 2.7-6.2 2.7-1.9 0-4.5-0.8-5.7-1.8-1.2-0.9-10.8-16.6-21.2-34.7-10.4-18.1-19.2-33-19.6-33-0.3 0-9.2 14.9-19.6 33-10.4 18.1-20 33.8-21.2 34.7-1.2 1-3.8 1.8-5.7 1.8-2.6 0-4.2-0.7-6.2-2.7-1.4-1.6-5.2-8.7-8.3-15.8-3.2-7.1-6-13.3-6.4-13.6-0.3-0.4-5.5-0.1-11.6 0.7-6.1 0.7-13.8 1.3-17.2 1.4-5.8 0-6.5-0.2-8.8-3-1.6-1.9-2.5-4.2-2.5-6.3 0-2.3 4.1-10.2 28.9-53.2l-90.2-0.5c-81.5-0.5-90.5-0.7-93.2-2.2-1.6-0.9-4-2.7-5.2-4-1.2-1.2-2.9-4-3.7-6.1-1.4-3.3-1.6-24.4-1.6-197.5 0-186.2 0.1-193.9 1.9-197.7 1-2.2 2.9-4.9 4.2-6.1 1.3-1.1 3.5-2.8 4.9-3.7 2.2-1.4 8.2-1.6 109-1.7zm99 48.7c0 17.7 0.3 23.4 1.3 23.8 0.6 0.3 11.2 0.4 23.5 0.3l22.2-0.3-47-47zm-19.9 391.7c-7.7 13.5-13.9 24.9-13.5 25.3 0.3 0.4 5.3 0.1 11.2-0.6 5.9-0.7 12.2-1.1 13.9-0.7 2 0.3 4 1.6 5.2 3.3 1 1.5 3.8 7.2 6.2 12.5 2.4 5.4 4.6 9.8 4.9 9.7 0.3 0 6.8-11.1 14.5-24.6 7.7-13.5 14-25 14-25.6 0-0.6-2.7-1.8-6-2.8-3.3-0.9-8.5-2.8-11.5-4.1-3-1.4-8.4-4.5-12-6.9-3.6-2.4-7.9-5.7-9.6-7.2l-3.2-2.8zm119.4-14.2c-3.3 2.2-8.5 5.2-11.5 6.5-3 1.4-8.2 3.3-11.5 4.2-3.3 0.9-6 2.2-6 2.7 0 0.6 6.3 12.1 14 25.6 7.7 13.6 14.2 24.7 14.5 24.7 0.3 0.1 2.5-4.3 5-9.7 2.4-5.4 5-10.7 5.6-11.8 0.7-1.1 2.5-2.6 4.1-3.3 2.3-1.1 5-1.1 14.8-0.2 6.6 0.7 12.1 0.9 12.3 0.6 0.1-0.3-6-11.6-13.6-25.1-7.6-13.4-14-24.4-14.2-24.4-0.3 0-2.1 1.3-4 3-1.9 1.7-6.2 4.9-9.5 7.2zm-173-315.2c49.6-0.1 78.2 0.3 80.3 0.9 1.8 0.6 3.7 1.9 4.2 3 0.6 1.1 1 3.1 1 4.3 0 1.2-1 3.3-4.5 6.8l-161.5-0.1-2-2.7c-1.1-1.5-2-3.4-2-4.3 0-0.8 0.7-2.5 1.6-3.8 0.9-1.3 2.6-2.7 3.8-3.2 1.2-0.4 36.8-0.9 79.1-0.9zm-80.3 36.9l161.3 0.1 2.3 2.2c1.3 1.2 2.3 3.3 2.2 4.5 0 1.2-0.4 3.1-1 4.2-0.5 1.1-2.4 2.5-4.2 3.1-2.1 0.6-30.7 1-79.8 1-48 0-77.6-0.4-79.5-1-1.6-0.6-3.5-2.2-4.2-3.5-0.7-1.4-1.3-3.2-1.4-3.9 0-0.8 0.9-2.6 2.1-4zm0.8 36h161.1l2 2.7c1.1 1.5 2 3.7 2 4.8 0 1.1-0.8 3.1-3.9 7l-79.3 0.2c-51.2 0.2-80.2 0-81.8-0.7-1.4-0.5-3.1-2.1-3.8-3.5-0.7-1.4-1.2-3.2-1.2-4.1 0-0.8 1.1-2.6 2.5-4zm160 36l2.5 2.5c1.4 1.4 2.5 3.7 2.5 5 0 1.4-1.1 3.7-4.9 7.5h-160.1l-2.6-2.7c-2.1-2.2-2.5-3.4-2-5.8 0.4-1.6 1.6-3.8 2.8-4.7 2-1.7 7.4-1.8 161.8-1.8zm-79.7 36.1c63.6-0.1 78.2 0.2 80.5 1.3 1.5 0.7 3.1 2.1 3.5 3 0.4 0.9 0.7 2.6 0.7 3.9 0 1.2-1 3.3-4.5 6.8l-161.5-0.1-2-2.7c-1.1-1.5-2-3.3-2-4 0-0.7 0.6-2.4 1.3-3.8 0.7-1.4 2.4-2.9 3.7-3.4 1.4-0.5 37.5-0.9 80.3-1zm127.7 58.5c2 0.2 4.4 1.2 5.4 2.2 1 0.9 3.8 5.7 6.3 10.5 3.3 6.6 4.8 8.7 6.3 8.7 1.1 0 5.5 0.6 9.8 1.2 6 0.9 8.4 1.8 10.7 3.9 2.5 2.3 3 3.5 3 7.3 0 4.4-0.3 5-15.3 20.1l1.4 7c0.7 3.9 1.4 8.9 1.4 11.3 0 3.4-0.6 4.8-2.9 7.2-2.3 2.4-3.8 3-7 3-2.9 0-6.4-1.2-20.6-8.9l-8.2 4.5c-5.9 3.1-9.4 4.4-12.3 4.4-3.1 0-4.6-0.6-7-3-2.2-2.2-3-3.9-3-6.7 0-2.1 0.7-7.1 2.9-18.8l-7.3-7.5c-4.4-4.4-7.6-8.7-8.1-10.5-0.4-1.8-0.1-4.1 0.7-5.9 0.7-1.6 2.2-3.6 3.3-4.5 1.2-0.9 6.3-2.3 21.8-4.6l4.3-8.5c2.3-4.6 5.1-9.2 6.1-10.1 1-0.9 2.5-1.9 3.3-2.2 0.9-0.3 3.1-0.4 5-0.1zm-9.6 33.2q-2.9 2.2-8.6 2.7c-3.2 0.3-5.7 0.9-5.7 1.3 0 0.4 2.2 3.1 5 6 3.9 4.1 4.9 5.9 4.9 8.5 0 1.8-0.4 5.1-0.7 7.5-0.4 2.3-0.4 4.2 0 4.2 0.4 0 2.9-1.1 5.5-2.5 2.6-1.3 6.1-2.5 7.7-2.5 1.7 0 5.2 1.1 7.8 2.5 2.6 1.4 5.1 2.5 5.5 2.5 0.4 0 0.4-1.9 0-4.2-0.4-2.4-0.7-5.7-0.7-7.5 0-2.6 1-4.4 4.9-8.5 2.7-2.9 5-5.6 5-6 0-0.4-2.5-1-5.7-1.3q-5.8-0.5-8.7-2.7c-1.5-1.3-3.9-4.4-5.2-7-1.3-2.6-2.6-4.8-2.8-4.8-0.3 0-1.6 2.2-2.9 4.8-1.3 2.6-3.7 5.7-5.3 7z"/>
</svg>