<svg version="1.2" xmlns="http://www.w3.org/2000/svg" viewBox="0 0 512 512" width="512" height="512">
	<title>internet</title>
	<style>
		.s0 { fill: #2a82ef } 
	</style>
	<path id="Path 0" fill-rule="evenodd" class="s0" d="m414.5 41l2.7 2.7c1.5 1.6 2.8 3.9 2.8 5.3 0.1 1.4-0.8 3.6-3.8 7.5l-192.4 0.5c-138.8 0.4-193 0.8-194.8 1.6-1.4 0.6-4 2.4-5.9 4-1.9 1.6-4.5 5.2-5.8 7.9-2.2 4.8-2.3 5.9-2.3 56.5h482v-25.8c0-24.8-0.1-25.9-2.3-30.7-1.3-2.8-3.9-6.3-5.8-7.9-1.9-1.6-4.5-3.3-5.9-3.9-1.4-0.6-10.8-1.3-20.8-1.7-18.1-0.5-18.4-0.5-20.3-3-1.1-1.4-2-3.6-1.9-5 0-1.4 1.3-3.7 5.5-8h15.5c12.6 0 16.7 0.4 22 2 3.6 1.1 8.3 3.1 10.5 4.4 2.2 1.3 6.2 4.8 8.8 7.7 2.7 3 5.8 7.9 9.2 16.4v331l-2.2 5.5c-1.2 3.2-4.4 8-7.5 11.3-3.6 4-7.4 6.9-18.3 12.2l-39 0.3c-36.4 0.3-39.2 0.2-41.4-1.5-1.7-1.3-2.4-2.8-2.4-5.3 0-2.5 0.7-4.1 2.7-5.7 2.6-2.3 2.7-2.3 39.1-2.3 28.3 0 37.2-0.3 39.8-1.3 1.7-0.8 4.7-2.7 6.6-4.3 1.9-1.6 4.5-5.1 8.1-12.9v-256.5h-482v29.3c0.1 26.6-0.1 29.4-1.7 31.4-1 1.3-3.1 2.6-4.8 2.9-2.4 0.6-3.5 0.2-8.5-4.6l0.3-64.8c0.2-63.9 0.2-64.8 2.4-70.2 1.2-3 4.3-7.9 7-10.9 2.6-2.9 6.8-6.5 9.3-7.9 2.5-1.5 7-3.4 10-4.3 5.1-1.6 19.6-1.7 385.5-1.9zm-407.1 184c1.8 0 4 1 7.7 4.5l-0.1 169 2.3 5c1.3 2.8 4.1 6.5 6.3 8.3 2.1 1.8 5.5 3.7 7.4 4.3 2.3 0.6 27.6 0.9 139.7 0.4l-16.3-43.5c-11.3-30.2-16.3-44.8-16.3-47.7-0.1-3.5 0.5-5 3.3-8 3.1-3.4 3.9-3.8 8.3-3.7 3.7 0 19.2 5.4 69.8 24.3 35.8 13.3 66.4 24.9 68 25.7 1.7 0.7 3.9 2.8 4.9 4.6 1.4 2.4 1.7 4.4 1.3 7.3-0.6 3.5-2.3 5.7-28.2 31.5l10 10 49.6 0.2c48.1 0.3 49.8 0.4 51.8 2.3 1.4 1.3 2.2 3.2 2.1 5.3 0 1.8-0.8 4-2 5.2-1.9 1.9-3.3 2-43.5 2-22.8 0-41.5 0.3-41.5 0.8 0 0.4 0.6 2.1 1.5 3.7 0.8 1.6 1.5 4 1.5 5.3 0 1.2-0.6 3.4-1.4 5-0.8 1.5-6.1 7.3-11.8 12.9-6.6 6.5-11.4 10.4-13.3 10.8-1.8 0.4-4.2 0.2-6-0.6-1.6-0.7-9.3-7.5-31-28.8l-13.5 13.5c-8.6 8.6-14.6 13.7-16.5 14.3-1.6 0.4-4.3 0.4-6-0.1-1.6-0.4-3.9-1.7-5-2.8-1.1-1.1-4.7-9.1-14-33.5l-148-1-6.5-3.2c-4.4-2.1-8.2-5-11.8-9-3.1-3.3-6.3-8.1-7.5-11.3-2.2-5.5-2.2-6-3.1-178.3l2.4-2.4c1.4-1.4 3.5-2.3 5.4-2.3zm170.1 167c12 32.2 21.9 58.7 22.1 59 0.3 0.3 6.8-5.9 14.7-13.7 12.8-12.9 14.5-14.2 17.7-14.3 3.2 0 4.9 1.5 19 15.5l15.5 15.5 12-12c-22.7-22.9-29.7-30.5-30.4-31.7-0.6-1.3-0.8-3.3-0.5-4.5 0.3-1.3 7-8.7 14.7-16.5 9.9-9.9 13.7-14.4 12.7-14.7-0.8-0.3-25.8-9.6-55.5-20.6-29.7-11-56.5-21-59.5-22.1-5.1-1.8-5.4-1.9-4.9-0.2 0.4 1 10.4 28.1 22.4 60.3zm-114.2-314c1.5 0 4.4 0.8 6.4 1.8 2 0.9 4.5 3.1 5.5 4.7 1 1.7 1.8 4.9 1.8 7.5 0 2.6-0.8 5.8-1.9 7.5-1.1 1.7-3.6 3.8-5.7 4.9-2.7 1.2-5 1.6-7.6 1.2-2.3-0.4-5.3-1.9-7.4-3.8-2.9-2.7-3.7-4.2-4.1-8.3-0.4-3.6-0.1-5.9 1.1-8 0.9-1.6 3.3-4 5.3-5.2 2.1-1.3 5-2.3 6.6-2.3zm43 0c1.5 0 3.9 0.6 5.5 1.4 1.5 0.8 3.8 2.6 5.2 4.1 1.8 1.9 2.6 4.1 2.8 7.3 0.2 3.4-0.3 5.6-1.7 8-1.2 1.7-3.1 3.9-4.3 4.7-1.3 0.8-4.1 1.8-6.3 2.1-2.9 0.4-5 0-7.5-1.4-1.9-1.1-4.4-3.5-5.4-5.3-1.1-1.9-2-5-2-6.9 0-2 1-5 2.3-6.9 1.3-1.8 3.7-4.2 5.4-5.2 1.8-1.1 4.4-1.9 6-1.9zm44.2 0.4c2.2 0.3 5.1 1.4 6.5 2.4 1.4 1 3.3 3.4 4.3 5.3 1.2 2.3 1.6 4.7 1.3 7.4-0.3 2.2-1.4 5.1-2.4 6.5-1 1.4-3.4 3.3-5.3 4.3-2.3 1.2-4.7 1.6-7.4 1.3-2.2-0.3-5.1-1.4-6.5-2.4-1.4-1-3.3-3.4-4.3-5.3-1.2-2.3-1.6-4.7-1.3-7.4 0.3-2.2 1.4-5.1 2.4-6.5 1-1.4 3.4-3.3 5.3-4.3 2.3-1.2 4.7-1.6 7.4-1.3zm-33 141.5c1.1 0 3.1 0.8 4.3 1.8 1.8 1.4 4.5 8.1 11 27.1 4.8 13.9 9.1 25.3 9.6 25.5 0.5 0.1 4.6-10.6 9.2-23.8 4.6-13.2 9-25 9.7-26.3 0.6-1.2 2.3-2.6 3.7-3.1 1.6-0.6 3.6-0.4 5.5 0.3 1.7 0.7 3.3 2 3.8 2.9 0.4 0.9 0.7 2.5 0.7 3.5 0 0.9-5.9 18.4-13 38.7-7.2 20.4-13.8 37.8-14.8 38.8-1 1-3.1 1.8-4.9 1.7-2.1 0-4-0.8-5-2-1-1.2-5.6-13.3-10.3-26.9-4.7-13.7-8.9-24.9-9.5-24.9-0.5-0.1-5.1 11.4-10.2 25.6-5.5 15.3-9.9 26.2-11 27-1 0.7-2.9 1.2-4.3 1.3-1.4 0-3.5-0.8-4.7-1.8-1.6-1.3-5.6-11.6-14.8-38.5-6.9-20.3-12.5-37.9-12.5-39.3 0-1.4 0.9-3.4 2-4.5 1.2-1.2 3.3-2 5.3-2 1.7 0 4 0.8 5 1.8 0.9 0.9 5.5 13.1 10.2 27 4.7 13.8 8.8 25.2 9.3 25.2 0.4 0.1 5-11.7 10.2-26.1 6.4-17.6 10.2-26.6 11.5-27.6 1.1-0.7 2.9-1.3 4-1.4zm138.7 0.1c1.3-0.1 3.3 0.7 4.5 1.7 1.7 1.3 4.7 8.9 11 27.3 4.7 14 8.8 25.7 9 26 0.2 0.3 0.5 0.3 0.8 0 0.2-0.3 4-10.6 8.4-23 4.3-12.4 8.5-24.1 9.3-26 0.9-2.2 2.5-3.9 4.4-4.7 2.2-0.8 3.5-0.8 5.4 0 1.3 0.7 3.1 2.3 3.9 3.7 1.3 2.3 0.6 4.9-11.8 40.5-9.4 27.1-13.9 38.5-15.4 39.8-1.2 1-3.3 1.8-4.7 1.8-1.4-0.1-3.3-0.6-4.3-1.3-1.1-0.8-5.2-11.1-10.8-27.3-4.9-14.3-9.2-26.2-9.4-26.5-0.3-0.3-0.6-0.3-0.8 0-0.2 0.3-4.3 11.8-9.2 25.5-4.8 13.8-9.7 26-10.9 27.3-1.3 1.4-3.3 2.3-5.1 2.3-1.6 0-3.8-0.8-4.7-1.8-1-1-7.6-18.8-14.8-39.5-7.8-22.8-12.7-38.5-12.3-39.5 0.3-1 1.3-2.6 2.2-3.6 1-1 3-1.8 5.1-1.8 2.1 0 4.2 0.8 5.1 1.8 0.9 1 5.6 13.4 10.5 27.5 4.9 14.2 9.2 25.5 9.5 25 0.4-0.4 4.6-11.9 9.5-25.7 5.5-15.4 9.7-25.9 11.1-27.2 1.2-1.3 3.2-2.3 4.5-2.3zm136.8 0c1.4 0 3.3 0.5 4.3 1.2 1.1 0.8 5.2 11.1 10.8 27.3 4.9 14.3 9.2 26.2 9.4 26.5 0.3 0.3 0.7 0.3 0.8 0 0.2-0.3 4.3-11.7 9-25.5 5.4-15.6 9.5-25.8 10.8-27 1.3-1.3 3.3-1.9 5.2-1.8 2 0.1 3.9 1.1 5 2.5 1 1.3 1.8 3.3 1.7 4.6 0 1.2-5.7 18.5-12.6 38.5-7.4 21.1-13.6 37.1-14.8 38.5-1.3 1.4-3.3 2.3-5.1 2.3-1.6 0-3.8-0.8-4.7-1.8-1-1-5.7-13.3-10.4-27.3-4.8-14-8.9-25.7-9.1-26-0.2-0.3-0.5-0.3-0.8 0-0.2 0.3-4.5 12-9.5 26-6.2 17.2-9.9 26.1-11.3 27.3-1.2 1-3.4 1.8-4.9 1.7-1.6 0-3.6-0.8-4.6-1.7-0.9-1-7.5-18.4-14.5-38.8-7-20.3-12.7-37.9-12.7-39 0-1.1 0.9-3 2-4.2 1.3-1.5 3.2-2.3 5.3-2.3 2.1 0 3.9 0.7 5.3 2.2 1.2 1.3 5.7 12.9 10.4 26.8 4.5 13.5 8.5 24.8 8.9 25.3 0.3 0.4 3.7-7.9 7.5-18.5 3.8-10.6 8.2-22.7 9.8-26.8 1.5-4.1 3.6-8.1 4.5-8.7 1-0.7 2.9-1.3 4.3-1.3z"/>
</svg>